<svg width="222" height="204" viewBox="0 0 222 204" fill="none" xmlns="http://www.w3.org/2000/svg">
<g clip-path="url(#clip0_9289_2075)">
<path d="M105.31 136.603C107.479 127.316 101.713 118.029 92.4319 115.859C83.1504 113.688 73.8678 119.457 71.6985 128.743C69.5292 138.029 75.2947 147.316 84.5762 149.487C93.8576 151.657 103.14 145.889 105.31 136.603Z" fill="#ED6435"/>
<path d="M209.405 146.611C209.405 146.611 219.652 120.865 219.113 113.851C218.573 106.759 217.726 102.674 216.262 93.8092C215.723 90.4946 213.797 82.7093 212.872 80.0115C215.8 77.699 215.029 77.4677 215.029 77.4677C215.029 77.4677 213.643 73.3824 210.176 64.9033C207.941 59.4305 202.934 52.8785 199.698 48.9473C198.85 47.7139 197.849 46.4806 196.693 45.4015C187.602 37.3078 183.211 35.5349 183.211 35.5349V34.5329C183.211 34.5329 187.371 32.0662 188.218 28.5204C189.066 24.8976 186.292 25.1288 186.292 25.1288C186.292 25.1288 190.761 15.3393 187.371 8.40193C183.981 1.46452 171.269 -2.62085 163.488 2.0041C155.706 6.62904 157.863 21.1976 157.863 21.1976C157.863 21.1976 156.862 20.4268 156.246 22.1997C155.629 23.9726 157.093 29.3683 157.863 30.7558C158.634 32.1433 159.558 32.1433 159.558 32.1433C159.558 32.1433 159.79 34.9953 159.635 35.0724C159.481 35.1495 152.47 38.387 147.694 39.6203C143.071 40.8536 135.213 43.5515 132.362 49.3327C129.512 55.1138 128.125 57.8117 125.043 61.9742C121.961 66.1366 119.496 70.8386 119.111 72.2261C118.803 73.6136 119.727 75.4636 119.727 75.4636C119.727 75.4636 108.941 85.9468 104.472 93.2696C100.851 99.205 95.0732 107.915 92.993 110.999C92.839 111.076 92.6849 111.076 92.6078 111.153C91.3751 111.153 86.9066 111.307 85.751 111.692C84.4412 112.155 81.5136 114.39 79.5875 115.546C77.6614 116.703 77.1221 118.938 77.1221 118.938C77.1221 118.938 77.1221 118.938 75.8124 119.632C74.5027 120.326 72.5766 122.869 72.3455 124.025C72.1143 125.182 75.8124 123.255 77.5074 122.098C79.2023 120.942 83.8249 121.328 86.9066 121.482C90.0654 121.636 89.295 124.103 88.3704 125.798C87.4459 127.494 87.3689 129.421 87.8311 130.5C88.2934 131.58 91.221 126.955 93.1471 124.025C95.0732 121.096 96.3059 117.319 96.3059 117.319C96.3059 117.319 115.413 100.284 120.883 95.8904C126.353 91.4196 132.131 82.1698 132.131 82.1698C132.131 82.1698 134.288 82.5552 135.906 81.9385C137.524 81.3219 142.763 75.4636 142.763 75.4636C142.763 75.4636 143.379 86.9489 144.15 89.6467C144.92 92.3446 140.066 98.0487 140.683 101.286C141.299 104.601 141.684 107.067 141.684 107.067C141.684 107.067 114.103 126.184 108.941 129.807C103.779 133.43 107.785 143.296 107.785 143.296C107.785 143.296 96.537 163.337 95.5355 167.423C94.5339 171.508 92.5308 178.137 92.3767 182.839C92.2226 187.541 92.3767 198.179 92.3767 198.179C92.3767 198.179 89.7572 200.337 88.5245 203.035C87.2918 205.733 85.9051 209.124 84.3642 210.666C82.8233 212.208 76.1976 218.528 74.5027 222.768C72.8077 227.008 70.6505 232.635 74.0404 233.637C77.4303 234.639 89.1409 232.48 92.7619 226.776C96.3829 221.072 99.3106 217.218 102.7 214.212C106.09 211.206 105.628 202.649 105.089 200.645C104.55 198.641 103.24 196.56 103.24 196.56C103.24 196.56 112.331 185.537 112.793 181.066C113.255 176.596 112.408 169.967 112.408 169.967L118.186 165.65C118.186 165.65 123.117 168.656 125.505 166.806C127.894 164.956 134.673 162.258 134.673 162.258C134.673 162.258 126.353 169.889 126.122 171.431C125.89 172.973 126.584 174.129 126.584 174.129C126.584 174.129 121.268 183.456 121.114 186.848C120.96 190.239 122.269 198.333 126.738 199.489C131.206 200.645 145.691 197.331 145.691 197.331C145.691 197.331 145.151 204.499 147.617 204.654C150.082 204.808 159.019 201.956 161.716 196.175C164.412 190.393 168.881 185.229 170.344 180.989C171.731 176.75 171.115 169.658 171.115 169.658C171.115 169.658 185.83 153.471 188.912 145.763C191.917 138.054 193.843 126.8 195.383 115.855C196.385 108.763 198.003 102.751 199.467 95.3508C201.47 100.67 204.398 108.224 205.245 109.688C206.632 112.001 206.401 118.784 205.014 122.946C203.781 126.569 201.701 138.902 201.008 142.448C200.776 142.757 200.622 142.911 200.622 142.911C200.622 142.911 197.541 145.069 194.536 147.921C191.531 150.696 186.678 155.013 187.987 155.321C189.374 155.629 191.531 155.09 193.303 153.779C195.075 152.392 197.849 151.004 198.619 154.627C199.39 158.25 200.699 163.569 199.698 165.727C198.696 167.885 197.232 172.587 198.465 172.125C199.698 171.662 202.394 168.887 202.857 167.192C203.396 165.496 203.396 165.496 203.396 165.496C203.396 165.496 205.861 164.417 206.863 161.95C207.787 159.483 209.868 155.706 210.099 154.011C210.253 152.777 209.713 148.538 209.405 146.611Z" fill="#403D3D"/>
<path d="M1.62646 100.995H6.41546L13.2149 112.098H13.2601V100.995H16.7841V116.972H12.1758L5.19562 105.599H5.15045V116.972H1.62646V100.995Z" fill="#D1CBCB"/>
<path d="M19.1883 108.984C19.1883 107.705 19.3991 106.546 19.8208 105.508C20.2575 104.47 20.8599 103.59 21.628 102.868C22.396 102.131 23.3071 101.567 24.3613 101.175C25.4155 100.784 26.5676 100.589 27.8175 100.589C29.0675 100.589 30.2196 100.784 31.2738 101.175C32.3279 101.567 33.2391 102.131 34.0071 102.868C34.7751 103.59 35.37 104.47 35.7917 105.508C36.2284 106.546 36.4468 107.705 36.4468 108.984C36.4468 110.262 36.2284 111.421 35.7917 112.459C35.37 113.497 34.7751 114.385 34.0071 115.122C33.2391 115.844 32.3279 116.401 31.2738 116.792C30.2196 117.183 29.0675 117.379 27.8175 117.379C26.5676 117.379 25.4155 117.183 24.3613 116.792C23.3071 116.401 22.396 115.844 21.628 115.122C20.8599 114.385 20.2575 113.497 19.8208 112.459C19.3991 111.421 19.1883 110.262 19.1883 108.984ZM22.8478 108.984C22.8478 109.736 22.9608 110.428 23.1867 111.06C23.4276 111.677 23.7665 112.218 24.2032 112.685C24.6399 113.136 25.1595 113.49 25.7619 113.745C26.3793 114.001 27.0646 114.129 27.8175 114.129C28.5705 114.129 29.2482 114.001 29.8506 113.745C30.4681 113.49 30.9951 113.136 31.4319 112.685C31.8686 112.218 32.1999 111.677 32.4258 111.06C32.6668 110.428 32.7873 109.736 32.7873 108.984C32.7873 108.246 32.6668 107.562 32.4258 106.93C32.1999 106.298 31.8686 105.757 31.4319 105.305C30.9951 104.839 30.4681 104.478 29.8506 104.222C29.2482 103.966 28.5705 103.838 27.8175 103.838C27.0646 103.838 26.3793 103.966 25.7619 104.222C25.1595 104.478 24.6399 104.839 24.2032 105.305C23.7665 105.757 23.4276 106.298 23.1867 106.93C22.9608 107.562 22.8478 108.246 22.8478 108.984Z" fill="#D1CBCB"/>
<path d="M1.762 131.876H5.28598V144.603H11.8144V147.853H1.762V131.876Z" fill="#D1CBCB"/>
<path d="M12.9012 139.864C12.9012 138.586 13.112 137.427 13.5337 136.389C13.9704 135.351 14.5728 134.471 15.3408 133.749C16.1089 133.011 17.02 132.447 18.0742 132.056C19.1284 131.665 20.2804 131.469 21.5304 131.469C22.7803 131.469 23.9324 131.665 24.9866 132.056C26.0408 132.447 26.9519 133.011 27.7199 133.749C28.488 134.471 29.0829 135.351 29.5045 136.389C29.9413 137.427 30.1596 138.586 30.1596 139.864C30.1596 141.143 29.9413 142.302 29.5045 143.34C29.0829 144.378 28.488 145.265 27.7199 146.003C26.9519 146.725 26.0408 147.281 24.9866 147.673C23.9324 148.064 22.7803 148.259 21.5304 148.259C20.2804 148.259 19.1284 148.064 18.0742 147.673C17.02 147.281 16.1089 146.725 15.3408 146.003C14.5728 145.265 13.9704 144.378 13.5337 143.34C13.112 142.302 12.9012 141.143 12.9012 139.864ZM16.5607 139.864C16.5607 140.617 16.6736 141.309 16.8995 141.941C17.1405 142.557 17.4793 143.099 17.916 143.565C18.3528 144.017 18.8723 144.37 19.4747 144.626C20.0922 144.882 20.7774 145.01 21.5304 145.01C22.2834 145.01 22.9611 144.882 23.5635 144.626C24.1809 144.37 24.708 144.017 25.1447 143.565C25.5815 143.099 25.9128 142.557 26.1387 141.941C26.3796 141.309 26.5001 140.617 26.5001 139.864C26.5001 139.127 26.3796 138.443 26.1387 137.811C25.9128 137.179 25.5815 136.637 25.1447 136.186C24.708 135.72 24.1809 135.358 23.5635 135.103C22.9611 134.847 22.2834 134.719 21.5304 134.719C20.7774 134.719 20.0922 134.847 19.4747 135.103C18.8723 135.358 18.3528 135.72 17.916 136.186C17.4793 136.637 17.1405 137.179 16.8995 137.811C16.6736 138.443 16.5607 139.127 16.5607 139.864Z" fill="#D1CBCB"/>
<path d="M47.0348 146.725C45.9957 147.266 44.9113 147.658 43.7819 147.898C42.6524 148.139 41.5003 148.259 40.3257 148.259C39.0757 148.259 37.9236 148.064 36.8694 147.673C35.8153 147.281 34.9041 146.725 34.1361 146.003C33.3681 145.265 32.7657 144.378 32.3289 143.34C31.9073 142.302 31.6964 141.143 31.6964 139.864C31.6964 138.586 31.9073 137.427 32.3289 136.389C32.7657 135.351 33.3681 134.471 34.1361 133.749C34.9041 133.011 35.8153 132.447 36.8694 132.056C37.9236 131.665 39.0757 131.469 40.3257 131.469C41.6057 131.469 42.7804 131.627 43.8496 131.943C44.9339 132.244 45.8827 132.771 46.6959 133.523L44.2111 136.231C43.7292 135.735 43.187 135.358 42.5846 135.103C41.9822 134.847 41.2292 134.719 40.3257 134.719C39.5727 134.719 38.8875 134.847 38.27 135.103C37.6676 135.358 37.148 135.72 36.7113 136.186C36.2746 136.637 35.9357 137.179 35.6948 137.811C35.4689 138.443 35.3559 139.127 35.3559 139.864C35.3559 140.617 35.4689 141.309 35.6948 141.941C35.9357 142.557 36.2746 143.099 36.7113 143.565C37.148 144.017 37.6676 144.37 38.27 144.626C38.8875 144.882 39.5727 145.01 40.3257 145.01C41.0937 145.01 41.7563 144.927 42.3135 144.761C42.8708 144.581 43.315 144.4 43.6463 144.22V141.625H40.7774V138.375H47.0348V146.725Z" fill="#D1CBCB"/>
<path d="M49.2784 139.864C49.2784 138.586 49.4892 137.427 49.9109 136.389C50.3476 135.351 50.95 134.471 51.7181 133.749C52.4861 133.011 53.3972 132.447 54.4514 132.056C55.5056 131.665 56.6577 131.469 57.9076 131.469C59.1576 131.469 60.3096 131.665 61.3638 132.056C62.418 132.447 63.3291 133.011 64.0972 133.749C64.8652 134.471 65.4601 135.351 65.8818 136.389C66.3185 137.427 66.5368 138.586 66.5368 139.864C66.5368 141.143 66.3185 142.302 65.8818 143.34C65.4601 144.378 64.8652 145.265 64.0972 146.003C63.3291 146.725 62.418 147.281 61.3638 147.673C60.3096 148.064 59.1576 148.259 57.9076 148.259C56.6577 148.259 55.5056 148.064 54.4514 147.673C53.3972 147.281 52.4861 146.725 51.7181 146.003C50.95 145.265 50.3476 144.378 49.9109 143.34C49.4892 142.302 49.2784 141.143 49.2784 139.864ZM52.9379 139.864C52.9379 140.617 53.0508 141.309 53.2767 141.941C53.5177 142.557 53.8565 143.099 54.2933 143.565C54.73 144.017 55.2496 144.37 55.852 144.626C56.4694 144.882 57.1546 145.01 57.9076 145.01C58.6606 145.01 59.3383 144.882 59.9407 144.626C60.5581 144.37 61.0852 144.017 61.522 143.565C61.9587 143.099 62.29 142.557 62.5159 141.941C62.7569 141.309 62.8773 140.617 62.8773 139.864C62.8773 139.127 62.7569 138.443 62.5159 137.811C62.29 137.179 61.9587 136.637 61.522 136.186C61.0852 135.72 60.5581 135.358 59.9407 135.103C59.3383 134.847 58.6606 134.719 57.9076 134.719C57.1546 134.719 56.4694 134.847 55.852 135.103C55.2496 135.358 54.73 135.72 54.2933 136.186C53.8565 136.637 53.5177 137.179 53.2767 137.811C53.0508 138.443 52.9379 139.127 52.9379 139.864Z" fill="#D1CBCB"/>
<path d="M1.62646 162.756H7.56753C8.39582 162.756 9.17893 162.832 9.91685 162.982C10.6548 163.132 11.2948 163.396 11.837 163.772C12.3942 164.133 12.8309 164.629 13.1472 165.261C13.4785 165.878 13.6441 166.66 13.6441 167.608C13.6441 168.541 13.4935 169.323 13.1924 169.955C12.8912 170.587 12.477 171.091 11.9499 171.467C11.4228 171.843 10.7978 172.114 10.075 172.28C9.35211 172.43 8.56901 172.505 7.72566 172.505H5.15045V178.734H1.62646V162.756ZM5.15045 169.526H7.49977C7.81602 169.526 8.11722 169.496 8.40335 169.436C8.70455 169.376 8.96809 169.278 9.19399 169.143C9.43494 168.992 9.62319 168.797 9.75873 168.556C9.90933 168.3 9.98462 167.984 9.98462 167.608C9.98462 167.202 9.88674 166.879 9.69096 166.638C9.51024 166.382 9.26929 166.187 8.96809 166.051C8.68196 165.916 8.35817 165.833 7.99674 165.803C7.6353 165.758 7.28893 165.735 6.95762 165.735H5.15045V169.526Z" fill="#D1CBCB"/>
<path d="M15.9908 162.756H19.5148V175.484H26.0432V178.734H15.9908V162.756Z" fill="#D1CBCB"/>
<path d="M33.2518 162.756H36.1658L43.1234 178.734H39.1476L37.7697 175.349H31.5575L30.2247 178.734H26.3393L33.2518 162.756ZM34.6071 167.405L32.6644 172.37H36.5724L34.6071 167.405Z" fill="#D1CBCB"/>
<path d="M46.9861 171.919L40.9772 162.756H45.3596L48.7481 168.737L52.3398 162.756H56.5189L50.51 171.919V178.734H46.9861V171.919Z" fill="#D1CBCB"/>
<path d="M57.839 162.756H68.7046V166.006H61.3629V168.985H68.298V172.235H61.3629V175.484H69.1112V178.734H57.839V162.756Z" fill="#D1CBCB"/>
<path d="M71.9322 162.756H78.1218C78.935 162.756 79.7031 162.839 80.4259 163.005C81.1639 163.155 81.8039 163.418 82.346 163.794C82.9033 164.155 83.34 164.652 83.6563 165.284C83.9876 165.901 84.1532 166.675 84.1532 167.608C84.1532 168.737 83.8596 169.699 83.2722 170.497C82.6849 171.279 81.8265 171.776 80.697 171.986L84.7631 178.734H80.5389L77.1956 172.347H75.4562V178.734H71.9322V162.756ZM75.4562 169.368H77.5345C77.8507 169.368 78.182 169.361 78.5284 169.346C78.8898 169.316 79.2136 169.248 79.4998 169.143C79.7859 169.022 80.0193 168.842 80.2 168.601C80.3958 168.36 80.4937 168.022 80.4937 167.586C80.4937 167.179 80.4109 166.856 80.2452 166.615C80.0796 166.375 79.8687 166.194 79.6127 166.074C79.3567 165.938 79.063 165.848 78.7317 165.803C78.4004 165.758 78.0766 165.735 77.7604 165.735H75.4562V169.368Z" fill="#D1CBCB"/>
</g>
<defs>
<clipPath id="clip0_9289_2075">
<rect width="222" height="204" fill="white"/>
</clipPath>
</defs>
</svg>
